<?xml version="1.0" encoding="UTF-8" standalone="no"?><!DOCTYPE svg PUBLIC "-//W3C//DTD SVG 1.1//EN" "http://www.w3.org/Graphics/SVG/1.1/DTD/svg11.dtd"><svg width="100%" height="100%" viewBox="0 0 65 50" version="1.1" xmlns="http://www.w3.org/2000/svg" xmlns:xlink="http://www.w3.org/1999/xlink" xml:space="preserve" style="fill-rule:evenodd;clip-rule:evenodd;stroke-linejoin:round;stroke-miterlimit:1.41421;"><rect id="web" x="0" y="0" width="65" height="50" style="fill:none;"/><path d="M30.343,46.164l-1.983,1.875l-1.307,-2.396l-2.252,1.541l-0.917,-2.57l-2.465,1.169l-0.503,-2.681l-2.618,0.769l-0.077,-2.728l-1.534,0.199c-0.235,0.094 -0.477,0.18 -0.722,0.256c-1.28,0.393 -2.438,0.585 -3.539,0.585c-0.02,0 -0.04,0 -0.06,-0.001c-0.67,0.609 -1.459,1.055 -2.349,1.329l-0.045,0.014l-0.078,0.019c-0.085,0.019 -0.318,0.065 -0.624,0.065c-1.219,0 -2.2,-0.672 -2.626,-1.799c-0.39,-1.035 -0.092,-2.126 0.799,-2.917c0.364,-0.323 0.75,-0.527 0.948,-0.621c0.228,-0.13 0.508,-0.247 0.852,-0.353c0.278,-0.086 0.567,-0.147 0.861,-0.184c0.062,-0.506 0.074,-1.152 0.034,-1.93c-0.028,0.01 -0.056,0.019 -0.085,0.027c-0.588,0.182 -1.183,0.273 -1.765,0.273c-2.55,0 -4.743,-1.772 -5.587,-4.515c-0.599,-1.947 -0.416,-4.107 0.501,-5.927c0.742,-1.471 2.315,-3.437 5.6,-4.446c0.259,-0.08 0.53,-0.152 0.807,-0.214l1.756,-0.959l-1.54,-2.252l2.57,-0.916l-1.17,-2.466l2.682,-0.503l-0.769,-2.618l2.727,-0.077l-0.35,-2.706l2.706,0.35l0.077,-2.727l2.618,0.769l0.503,-2.681l2.465,1.169l0.917,-2.57l2.252,1.54l1.307,-2.395l1.983,1.875l1.666,-2.162l1.666,2.162l1.983,-1.875l1.307,2.395l2.252,-1.54l0.916,2.57l2.465,-1.169l0.503,2.681l2.618,-0.769l0.078,2.727l2.706,-0.35l-0.351,2.706l2.728,0.077l-0.77,2.618l0.58,0.109c0.277,-0.661 0.818,-1.14 1.553,-1.366c0.195,-0.06 0.399,-0.091 0.604,-0.091c1.096,0 2.059,0.867 2.342,2.109c0.021,0.087 0.187,0.83 0.275,1.718c0.635,0.406 1.429,1.059 1.773,2.181c0.164,0.534 0.186,1.089 0.164,1.666c0.959,-0.555 1.786,-0.821 2.53,-0.821c1.387,0 2.461,0.949 2.674,2.363c0.144,0.961 -0.097,2.134 -0.662,3.217c-0.368,0.706 -1.191,1.954 -2.559,2.374c-0.547,0.169 -1.113,0.254 -1.682,0.254c-0.767,0 -1.521,-0.161 -2.194,-0.466c-0.381,0.234 -0.788,0.46 -1.23,0.681l0.769,0.814l-2.395,1.307l1.541,2.252l-2.57,0.916l1.169,2.466l-2.682,0.503l0.77,2.618l-2.728,0.077l0.351,2.706l-2.706,-0.351l-0.078,2.728l-2.618,-0.769l-0.503,2.681l-2.465,-1.169l-0.916,2.57l-2.252,-1.541l-1.307,2.396l-1.983,-1.875l-1.666,2.162l-1.666,-2.162Zm19.003,-16.866c-0.79,3.055 -2.383,5.856 -4.673,8.146c-3.382,3.383 -7.88,5.246 -12.664,5.246c-4.488,0 -8.724,-1.64 -12.024,-4.636c-0.111,0.19 -0.237,0.385 -0.382,0.583c3.415,3.065 7.781,4.742 12.406,4.742c4.968,0 9.639,-1.935 13.151,-5.448c2.484,-2.483 4.177,-5.545 4.958,-8.881c-0.253,0.083 -0.51,0.166 -0.772,0.248Zm-34.266,0.308c1.203,-1.197 1.45,-2.81 1.019,-4.214c-0.869,-2.824 -3.893,-3.431 -6.794,-2.539c-4.691,1.443 -5.849,5.363 -4.967,8.233c0.698,2.268 2.682,3.887 5.213,3.109c0.339,-0.104 0.649,-0.25 0.909,-0.448c0.26,-0.199 0.226,-0.564 0.06,-0.902c-0.165,-0.338 -0.397,-0.492 -0.715,-0.349c-0.319,0.142 -0.393,0.205 -0.625,0.276c-1.743,0.536 -3.14,-0.655 -3.662,-2.353c-0.716,-2.33 0.182,-5.613 3.932,-6.766c2.114,-0.65 4.551,-0.082 5.292,2.325c0.384,1.25 0.213,2.67 -0.795,3.622c-0.425,0.046 -0.886,0.138 -1.369,0.269c-0.404,-2.409 -0.425,-4.03 -0.412,-4.508c0.013,-0.478 -0.383,-0.683 -0.727,-0.654c-0.353,0.03 -0.818,0.174 -0.83,0.704c-0.011,0.53 0.234,2.881 0.72,5.89c0.628,3.91 0.807,6.743 0.044,8.16c-0.519,-0.094 -1.101,-0.066 -1.626,0.095c-0.216,0.067 -0.412,0.143 -0.583,0.247c0,0 -1.249,0.521 -0.917,1.403c0.333,0.881 1.267,0.668 1.267,0.668c0.787,-0.242 1.543,-0.694 2.158,-1.441c0.799,0.075 1.984,0.083 3.79,-0.473c3.564,-1.096 4.659,-4.287 3.872,-6.848c-0.555,-1.806 -2.042,-3.29 -4.254,-3.506Zm19.125,8.415c-0.134,-0.457 -0.159,-1.439 0.622,-1.684c0.345,-0.107 0.482,0.046 0.543,0.24c0.14,0.449 -0.18,0.923 -0.636,1.096c0.008,0.04 0.018,0.084 0.028,0.119c0.077,0.244 0.206,0.289 0.342,0.247c0.147,-0.046 0.302,-0.202 0.393,-0.349c0.056,0.468 -0.181,0.686 -0.491,0.784c-0.312,0.097 -0.576,0.033 -0.73,-0.269c-0.132,0.316 -0.35,0.606 -0.736,0.727c-0.269,0.084 -0.502,0.049 -0.66,-0.152c-0.095,0.339 -0.284,0.447 -0.437,0.495c-0.337,0.106 -0.525,-0.074 -0.594,-0.295c-0.082,-0.264 -0.057,-0.795 -0.135,-1.043c-0.04,-0.128 -0.108,-0.184 -0.201,-0.154c-0.14,0.043 -0.193,0.239 -0.191,0.451l0.126,1.327l-0.558,0.174l-0.021,-0.22c-0.129,0.254 -0.326,0.354 -0.461,0.396c-0.232,0.073 -0.458,-0.009 -0.56,-0.335c-0.004,-0.014 -0.008,-0.028 -0.012,-0.043c-0.097,0.161 -0.203,0.29 -0.298,0.396c-0.11,0.221 -0.339,0.36 -0.537,0.423c-0.395,0.123 -0.646,-0.083 -0.721,-0.32c-0.056,-0.178 0.004,-0.341 0.093,-0.424c0.097,-0.452 0.116,-0.88 0.118,-1.297l0.55,-0.257c0.36,0.989 0.446,1.128 0.526,1.384c0.017,0.055 0.028,0.102 0.031,0.152c0.078,-0.087 0.151,-0.179 0.204,-0.259c0,-0.006 -0.001,-0.011 -0.001,-0.017l-0.126,-1.327l0.558,-0.174l0.133,1.405c0.004,0.054 0.013,0.094 0.023,0.129c0.035,0.109 0.096,0.127 0.205,0.094c0.125,-0.04 0.211,-0.179 0.235,-0.347l-0.135,-1.425l0.559,-0.175l0.02,0.215c0.105,-0.237 0.266,-0.321 0.386,-0.359c0.248,-0.078 0.47,-0.007 0.567,0.303c0.098,0.314 0.059,0.842 0.126,1.059c0.031,0.097 0.09,0.15 0.207,0.114c0.126,-0.039 0.173,-0.138 0.198,-0.279c-0.005,-0.014 -0.01,-0.028 -0.014,-0.042c-0.141,-0.45 -0.176,-1.46 0.611,-1.706c0.345,-0.109 0.486,0.043 0.542,0.221c0.059,0.19 -0.005,0.313 -0.117,0.348c-0.043,0.013 -0.094,0.012 -0.15,-0.004c0.004,-0.096 -0.005,-0.178 -0.025,-0.244c-0.031,-0.097 -0.085,-0.148 -0.159,-0.125c-0.244,0.077 -0.274,0.865 -0.139,1.295c0.082,0.264 0.194,0.297 0.38,0.238c0.27,-0.084 0.405,-0.271 0.519,-0.507Zm-5.624,1.883c-0.039,0.012 -0.089,0.015 -0.121,-0.017c0.057,0.182 0.151,0.25 0.322,0.197c0.17,-0.053 0.309,-0.195 0.224,-0.466c-0.063,-0.202 -0.135,-0.311 -0.361,-0.896c0.002,0.276 -0.034,0.543 -0.085,0.831c0.058,0.008 0.111,0.042 0.132,0.108c0.029,0.093 -0.01,0.212 -0.111,0.243Zm-13.357,-0.715c-1.25,0.384 -2.18,0.434 -2.971,0.39c0.892,-1.659 1.261,-4.357 0.528,-8.607c0.567,-0.191 1.067,-0.429 1.488,-0.711c1.782,0.195 3.041,1.598 3.544,3.234c0.684,2.221 0.003,4.897 -2.589,5.694Zm22.489,-2.073c0.271,-0.085 0.307,-0.202 0.436,-0.43c0.023,0.061 0.04,0.115 0.057,0.17c0.119,0.379 0.104,0.605 -0.28,0.725c-0.422,0.133 -0.609,0.037 -1.005,0.161c-0.089,0.028 -0.203,0.153 -0.272,0.204c-0.021,-0.039 -0.034,-0.082 -0.048,-0.125c-0.265,-0.849 0.891,-1.628 0.569,-2.659c-0.06,-0.19 -0.224,-0.279 -0.336,-0.244c-0.26,0.082 -0.276,0.219 -0.216,0.412c0.028,0.09 0.112,0.221 0.23,0.218c-0.073,0.121 -0.161,0.195 -0.254,0.224c-0.159,0.05 -0.317,-0.037 -0.388,-0.262c-0.082,-0.263 0.035,-0.636 0.62,-0.819c0.532,-0.166 0.815,0.017 0.933,0.393c0.27,0.865 -0.67,1.576 -0.828,2.2l0.02,-0.006c0.229,-0.072 0.471,-0.071 0.762,-0.162Zm-7.912,-0.074c0.17,-0.054 0.353,0.042 0.407,0.213c0.053,0.171 -0.044,0.35 -0.215,0.403c-0.17,0.053 -0.348,-0.04 -0.402,-0.211c-0.053,-0.17 0.039,-0.352 0.21,-0.405Zm5.121,-0.509c-0.194,0.061 -0.253,0.552 -0.219,0.946c0.297,-0.11 0.468,-0.491 0.366,-0.817c-0.03,-0.097 -0.073,-0.152 -0.147,-0.129Zm5.208,-1.769c0.242,0.771 0.166,2.068 -0.629,2.316c-0.666,0.209 -0.92,-0.125 -1.121,-0.769c-0.331,-1.058 -0.09,-2.082 0.744,-2.343c0.484,-0.152 0.803,0.145 1.006,0.796Zm-9.602,-7.155c0.027,-0.516 0.081,-1.056 0.094,-1.617c0.676,0.991 1.408,1.779 1.702,2.736c0.171,0.556 0.041,0.9 -0.345,1.018c-0.293,0.091 -0.441,-0.003 -0.665,-0.182c-0.223,-0.18 -0.463,-0.004 -0.633,0.187c-0.17,0.191 -0.24,0.519 -0.069,0.751c0.409,0.553 0.938,0.761 1.663,0.538c1.242,-0.382 1.735,-1.611 1.964,-3.069c0.489,1.223 1.366,2.045 2.573,1.674c0.825,-0.254 1.282,-0.919 1.552,-1.837c0.043,0.42 0.107,0.719 0.152,0.879c0.112,0.398 0.477,0.285 0.791,0.189c0.314,-0.097 0.589,-0.292 0.571,-0.562c-0.067,-0.994 -0.346,-3.17 -0.346,-3.17c-0.161,-2.333 0.295,-3.266 0.681,-3.385c0.17,-0.052 0.29,0.063 0.342,0.233c0.342,1.11 -0.135,3.132 0.378,4.798c0.289,0.941 0.931,1.217 1.471,1.05c0.833,-0.256 1.18,-1.21 1.359,-2.393c0.344,1.068 0.905,1.782 1.643,1.555c0.88,-0.271 1.168,-1.255 1.234,-2.305c0.019,0.062 0.037,0.124 0.052,0.17c0.327,1.064 0.742,1.426 1.236,1.275c0.561,-0.173 1.02,-1.052 1.278,-2.774c0.489,1.223 1.366,2.045 2.573,1.674c1.511,-0.465 1.728,-2.288 1.878,-4.546l0.114,-1.826c0.269,0.272 0.517,0.584 0.66,1.047c0.242,0.787 -0.355,2.473 0.087,3.908c0.055,0.18 0.123,0.349 0.2,0.507c-5.548,3.908 -12.297,4.463 -19.599,7.092c-6.327,2.277 -16.541,3.505 -13.926,5.708c0.962,0.81 6.415,-2.036 12.964,-4.362c9.932,-3.526 17.397,-4.498 21.307,-7.457c0.916,0.797 2.242,0.977 3.416,0.616c2.207,-0.679 3.655,-6.928 -1.17,-3.668c-0.649,0.438 -1.287,0.877 -1.915,1.316c-0.013,-0.039 -0.026,-0.076 -0.038,-0.116c-0.413,-1.342 0.147,-3.203 -0.157,-4.19c-0.271,-0.88 -1.124,-1.293 -1.794,-1.661c0,-0.878 -0.18,-1.896 -0.286,-2.361c-0.107,-0.464 -0.455,-0.86 -0.773,-0.762c-0.318,0.098 -0.564,0.296 -0.553,0.86c0.008,0.415 0.076,1.114 0.228,1.607c0.166,0.541 0.417,0.919 0.676,1.211c0.072,0.772 0.108,1.588 0.062,2.398c-0.106,1.73 -0.512,2.976 -1.414,3.254c-0.71,0.218 -1.2,-0.442 -1.485,-1.368l-0.071,-0.231c1.73,-0.854 2.2,-2.619 1.863,-3.715c-0.218,-0.71 -0.774,-1.146 -1.546,-0.909c-1.488,0.457 -1.967,2.683 -1.661,4.632c-0.105,1.277 -0.295,2.168 -0.625,2.269c-0.107,0.033 -0.192,-0.076 -0.291,-0.4c-0.157,-0.509 -0.332,-1.519 -0.547,-3.26c-0.124,-2.766 -0.476,-5.855 -0.753,-6.848c-0.143,-0.511 -0.45,-0.737 -0.824,-0.622c-0.375,0.115 -0.525,0.415 -0.47,0.918c0.055,0.503 0.706,5.816 0.706,5.816c-0.322,-0.661 -0.75,-0.901 -1.321,-0.726c-1.142,0.352 -1.507,2.598 -1.296,4.602c-0.138,1.735 -0.375,2.634 -0.75,2.749c-0.139,0.043 -0.332,0.018 -0.47,-0.429c-0.389,-1.266 0.05,-3.41 -0.392,-4.845c-0.228,-0.741 -0.692,-0.986 -1.232,-0.821c-0.648,0.2 -1.123,0.853 -1.389,1.745c0,0 -0.073,-0.538 -0.105,-0.773c-0.032,-0.235 -0.413,-0.385 -0.787,-0.27c-0.374,0.115 -0.583,0.365 -0.53,0.765c0.044,0.337 0.256,1.866 0.458,3.441c-0.14,1.567 -0.599,2.621 -1.449,2.882c-0.71,0.219 -1.2,-0.441 -1.485,-1.367c-0.024,-0.077 -0.047,-0.154 -0.071,-0.231c1.73,-0.853 2.201,-2.62 1.864,-3.715c-0.218,-0.71 -0.775,-1.147 -1.546,-0.91c-1.488,0.458 -1.969,2.684 -1.662,4.634c-0.046,0.566 -0.116,1.108 -0.241,1.593l-0.019,-0.062c-0.531,-1.728 -2.537,-2.868 -2.981,-4.15c-0.024,-0.736 -0.17,-2.066 -0.21,-2.26c-0.039,-0.195 -0.201,-0.656 -0.581,-0.631c-0.38,0.024 -0.531,0.457 -0.553,0.744c-0.022,0.288 0.089,1.418 0.279,2.036c0.161,0.524 0.39,0.994 0.641,1.424c-0.063,0.8 -0.139,1.557 -0.18,2.136c-0.1,1.432 -0.236,2.501 -0.59,2.61c-0.108,0.033 -0.192,-0.076 -0.292,-0.4c-0.157,-0.509 -0.332,-1.519 -0.547,-3.26c-0.124,-2.766 -0.535,-6.232 -0.844,-7.286c-0.147,-0.501 -0.402,-0.634 -0.785,-0.471c-0.229,0.099 -0.502,0.457 -0.448,0.911c0.038,0.314 0.736,6.11 0.736,6.11c-0.321,-0.662 -0.75,-0.901 -1.321,-0.726c-1.139,0.35 -1.505,2.586 -1.297,4.586c-0.171,1.885 -0.553,2.722 -0.713,2.771c-0.077,0.024 -0.157,-0.07 -0.228,-0.301c-0.033,-0.108 -0.071,-0.232 -0.092,-0.411c-0.254,-1.594 -0.586,-5.116 -0.642,-5.545c-0.046,-0.361 -0.419,-0.242 -0.681,-0.162c-0.263,0.081 -0.428,0.314 -0.414,0.499c0.02,0.264 0.096,0.916 0.096,0.916c-0.321,-0.661 -0.75,-0.901 -1.321,-0.725c-1.466,0.45 -1.667,4.025 -0.998,6.201c0.347,1.126 0.912,1.864 1.667,1.632c0.896,-0.275 1.184,-1.259 1.249,-2.31c0.019,0.062 0.038,0.124 0.053,0.17c0.327,1.065 0.742,1.427 1.236,1.275c0.518,-0.159 0.884,-0.902 1.114,-2.364c0.343,1.092 0.908,1.827 1.656,1.597c0.88,-0.271 1.168,-1.254 1.233,-2.305c0.02,0.062 0.039,0.123 0.053,0.17c0.327,1.064 0.743,1.427 1.236,1.275c0.694,-0.214 1.184,-1.667 1.376,-4.308l0.002,0Zm8.479,8.626c0.09,0.286 0.226,0.572 0.412,0.513c0.442,-0.138 0.407,-1.174 0.126,-2.073c-0.1,-0.318 -0.203,-0.554 -0.385,-0.497c-0.233,0.073 -0.46,0.774 -0.254,1.667c0.025,0.107 0.056,0.246 0.101,0.39Zm2.305,0.24l-0.558,0.175l-0.245,-2.579l-0.368,0.115l-0.009,-0.193c0.213,-0.066 0.508,-0.184 0.89,-0.61l0.29,3.092Zm2.12,-2.617c0.242,0.771 0.166,2.067 -0.629,2.316c-0.666,0.208 -0.92,-0.125 -1.121,-0.769c-0.331,-1.058 -0.09,-2.082 0.744,-2.343c0.484,-0.152 0.802,0.145 1.006,0.796Zm-1.123,1.47c0.09,0.287 0.226,0.572 0.412,0.514c0.442,-0.138 0.407,-1.174 0.126,-2.073c-0.1,-0.318 -0.203,-0.554 -0.385,-0.497c-0.233,0.072 -0.46,0.774 -0.254,1.667c0.025,0.107 0.056,0.246 0.101,0.389Zm-20.836,-2.401c-0.232,0.071 -0.424,-0.225 -0.571,-0.703c-0.432,-1.404 -0.48,-4.362 0.168,-4.561c0.339,-0.105 0.602,0.254 0.777,0.825c0.441,1.435 0.335,4.221 -0.374,4.439Zm5.292,-1.628c-0.216,0.066 -0.408,-0.229 -0.555,-0.707c-0.427,-1.389 -0.511,-4.352 0.152,-4.557c0.339,-0.104 0.602,0.254 0.777,0.826c0.442,1.434 0.336,4.22 -0.374,4.438Zm8.324,-5.279c-0.209,-1.338 -0.01,-2.834 0.622,-3.029c0.155,-0.047 0.295,0.079 0.366,0.31c0.175,0.571 -0.006,1.792 -0.988,2.719Zm10.454,-0.496c-0.216,0.067 -0.409,-0.229 -0.556,-0.707c-0.427,-1.389 -0.511,-4.352 0.153,-4.556c0.34,-0.105 0.602,0.254 0.777,0.824c0.442,1.435 0.335,4.221 -0.374,4.439Zm13.116,-0.571c-0.789,0.242 -1.654,0.15 -2.278,-0.535c1.948,-1.478 3.258,-2.452 3.713,-2.322c0.653,0.188 -0.077,2.439 -1.435,2.857Zm-34.889,-1.75l1.818,-0.557c-0.092,-0.768 -0.183,-1.525 -0.25,-2.079l-2.015,2.682c0.035,0.004 0.07,0.006 0.106,0.006c0.115,0 0.23,-0.018 0.341,-0.052Zm-1.467,-0.778c0.067,0.218 0.197,0.406 0.365,0.549l2.555,-3.401c-0.058,-1.016 0.564,-1.827 1.241,-2.116c0.152,-0.065 0.303,-0.111 0.454,-0.139l0.461,-0.612l-7.504,-2.869c-0.067,0.22 -0.067,0.454 0.002,0.678l2.426,7.91Zm9.706,-15.556c4.784,0 9.281,1.863 12.665,5.246c0.041,0.041 0.081,0.084 0.123,0.126c0.195,-0.148 0.41,-0.254 0.626,-0.32c0.006,-0.002 0.013,-0.003 0.019,-0.005c-0.093,-0.097 -0.186,-0.193 -0.281,-0.288c-3.513,-3.513 -8.184,-5.448 -13.152,-5.448c-4.968,0 -9.639,1.935 -13.152,5.448c-2.714,2.713 -4.485,6.118 -5.151,9.817c0.227,0.066 0.447,0.143 0.658,0.233c0.626,-3.604 2.34,-6.923 4.98,-9.563c3.383,-3.383 7.881,-5.246 12.665,-5.246Zm18.047,14.548c-0.209,-1.337 -0.011,-2.834 0.622,-3.029c0.154,-0.047 0.294,0.079 0.366,0.31c0.175,0.571 -0.007,1.792 -0.988,2.719Zm-21.046,-2.659c0.081,0.276 0.165,0.679 0.249,1.17c0.158,-0.059 0.327,-0.096 0.504,-0.107c0.037,-0.002 0.076,-0.004 0.113,-0.004c0.679,0 1.267,0.393 1.598,1.023l6.376,-1.955c0.108,-0.033 0.209,-0.082 0.301,-0.142l-7.355,-2.611l-0.261,0.374c-0.322,0.46 -0.896,0.73 -1.46,0.73c-0.199,0 -0.396,-0.033 -0.581,-0.104l-0.446,-0.17l-0.3,0.399c0.433,0.129 0.993,0.478 1.262,1.397Zm6.809,-9.814l-4.614,6.602l7.398,2.626c0.092,-0.242 0.102,-0.505 0.026,-0.754l-2.427,-7.91c-0.069,-0.227 -0.206,-0.421 -0.383,-0.564Zm-7.079,7.545c0.413,0.158 0.976,-0.015 1.23,-0.378l5.192,-7.43c-0.029,-0.002 -0.057,-0.004 -0.085,-0.004c-0.116,0 -0.231,0.018 -0.342,0.052l-14.08,4.318c-0.141,0.044 -0.271,0.113 -0.384,0.204l8.469,3.238Z" style="fill:#fff;"/></svg>