<svg width="144" height="31" viewBox="0 0 144 31" fill="none" xmlns="http://www.w3.org/2000/svg">
<path d="M6.07953 25.8811H17.7791V30.642H0V7.01648H6.07953V25.8811Z" fill="black"/>
<path d="M27.1353 31C24.1898 31 21.8569 30.1886 20.1368 28.5658C18.4402 26.9431 17.5919 24.6521 17.5919 21.693C17.5919 19.7361 17.9807 18.0656 18.7583 16.6815C19.5595 15.2735 20.6434 14.2115 22.0101 13.4956C23.4004 12.7558 25.0145 12.3859 26.8525 12.3859C28.7141 12.3859 30.2929 12.7558 31.5889 13.4956C32.9085 14.2115 33.91 15.2138 34.5933 16.5025C35.2767 17.7673 35.6184 19.223 35.6184 20.8696C35.6184 21.3231 35.5948 21.7646 35.5477 22.1941C35.5241 22.5998 35.5005 22.9458 35.477 23.2322H23.424C23.5889 24.4731 23.9895 25.368 24.6257 25.9169C25.262 26.4419 26.0985 26.7044 27.1353 26.7044C28.0307 26.7044 28.7377 26.5255 29.2561 26.1675C29.798 25.8095 30.1986 25.3084 30.4578 24.664L35.2649 26.2749C34.935 27.301 34.3577 28.1721 33.5329 28.888C32.7318 29.5801 31.7656 30.1051 30.6346 30.463C29.527 30.821 28.3606 31 27.1353 31ZM26.8525 16.6457C24.9438 16.6457 23.8128 17.7554 23.4593 19.9747H29.9276C29.6684 17.7554 28.6434 16.6457 26.8525 16.6457Z" fill="black"/>
<path d="M47.9241 7.01648C50.7518 7.01648 52.955 7.70854 54.5338 9.09266C56.1362 10.4529 56.9374 12.3859 56.9374 14.8917C56.9374 17.3974 56.1362 19.3424 54.5338 20.7265C52.955 22.0867 50.7518 22.7669 47.9241 22.7669H43.2938V30.642H37.2142V7.01648H47.9241ZM46.9698 18.1491C49.5382 18.1491 50.8225 17.0633 50.8225 14.8917C50.8225 12.72 49.5382 11.6342 46.9698 11.6342H43.2938V18.1491H46.9698Z" fill="black"/>
<path d="M68.1409 19.2946C68.1409 18.4594 67.9053 17.8031 67.434 17.3258C66.9863 16.8247 66.3736 16.5741 65.596 16.5741C64.8184 16.5741 64.1468 16.7769 63.5812 17.1826C63.0393 17.5645 62.6622 18.2565 62.4502 19.2588L57.3603 18.0417C57.6902 16.3235 58.5621 14.9513 59.9759 13.9252C61.3898 12.899 63.381 12.3859 65.9494 12.3859C68.5415 12.3859 70.5444 12.9706 71.9583 14.1399C73.3957 15.2854 74.1144 16.9678 74.1144 19.1872V25.7379C74.1144 26.6686 74.5268 27.134 75.3515 27.134C75.7757 27.134 76.1173 27.0863 76.3765 26.9908L76.0231 30.463C75.3161 30.7971 74.4561 30.9642 73.4428 30.9642C72.3353 30.9642 71.381 30.7494 70.5798 30.3199C69.7786 29.8664 69.2366 29.1863 68.9539 28.2795C68.459 29.2102 67.6696 29.9022 66.5857 30.3557C65.5253 30.7852 64.3942 31 63.1924 31C61.378 31 59.9288 30.5824 58.8449 29.7471C57.7845 28.888 57.2543 27.659 57.2543 26.0601C57.2543 24.7714 57.6313 23.7095 58.3854 22.8742C59.163 22.0151 60.3765 21.4185 62.026 21.0844L68.1409 19.7958V19.2946ZM63.1924 25.4874C63.1924 26.0124 63.381 26.4061 63.758 26.6686C64.135 26.9311 64.5827 27.0624 65.1011 27.0624C65.9023 27.0624 66.6092 26.8238 67.2219 26.3465C67.8346 25.8453 68.1409 25.0697 68.1409 24.0197V23.0174L65.2779 23.626C64.5709 23.7691 64.0407 23.9839 63.6873 24.2703C63.3574 24.5328 63.1924 24.9385 63.1924 25.4874Z" fill="black"/>
<path d="M88.5912 12.7439V17.0752H83.3246V24.2703C83.3246 25.1294 83.5249 25.7499 83.9255 26.1317C84.3496 26.4896 84.927 26.6686 85.6574 26.6686C86.223 26.6686 86.706 26.609 87.1066 26.4896C87.5072 26.3465 87.8842 26.1436 88.2377 25.8811L88.8739 29.6397C88.2848 30.0454 87.5308 30.3795 86.6118 30.642C85.7164 30.8807 84.8091 31 83.8901 31C81.8636 31 80.2613 30.5704 79.0831 29.7113C77.9284 28.8283 77.3393 27.3488 77.3158 25.2726V17.0752H74.276V12.7439H77.3158V8.73467L83.3246 7.05225V12.7439H88.5912Z" fill="black"/>
<path d="M89.2458 30.642V12.7439H94.5478L94.7952 16.6099C95.2193 15.2974 95.8674 14.2712 96.7392 13.5314C97.6347 12.7678 98.7776 12.3859 100.168 12.3859C100.616 12.3859 100.993 12.4337 101.299 12.5291C101.629 12.6007 101.888 12.6842 102.077 12.7797L101.476 17.7912C101.24 17.7196 100.934 17.648 100.557 17.5764C100.203 17.5048 99.7673 17.469 99.2489 17.469C98.1649 17.469 97.2223 17.815 96.4211 18.5071C95.6435 19.1992 95.2547 20.2372 95.2547 21.6214V30.642H89.2458Z" fill="black"/>
<path d="M126.292 30.642V12.7439H131.664L131.841 16.3593C132.383 15.0468 133.172 14.0564 134.209 13.3882C135.246 12.72 136.471 12.3859 137.885 12.3859C139.7 12.3859 141.172 12.9229 142.303 13.9968C143.434 15.0706 144 16.6457 144 18.7219V30.642H137.991V20.3327C137.991 19.0918 137.756 18.2327 137.284 17.7554C136.813 17.2781 136.212 17.0394 135.482 17.0394C134.61 17.0394 133.856 17.3497 133.219 17.9701C132.607 18.5906 132.3 19.6526 132.3 21.156V30.642H126.292Z" fill="black"/>
<path d="M116.357 16.2828L119.755 6.37097" stroke="black" stroke-linecap="round"/>
<path d="M118.781 7.85574C119.585 8.40397 120.671 8.18354 121.208 7.36341C121.745 6.54328 121.529 5.434 120.726 4.88578C119.923 4.33755 118.836 4.55798 118.299 5.37811C117.762 6.19824 117.978 7.30751 118.781 7.85574Z" fill="#F04E23"/>
<path d="M116.515 18.8485L123.168 10.8399" stroke="black" stroke-linecap="round"/>
<path d="M121.738 11.87C122.295 12.6759 123.387 12.868 124.176 12.299C124.966 11.7301 125.154 10.6156 124.597 9.80968C124.039 9.00378 122.948 8.81168 122.158 9.38062C121.369 9.94955 121.181 11.0641 121.738 11.87Z" fill="#00ACDC"/>
<path d="M124.291 20.9748C124.291 26.2958 124.057 27.2935 113.742 27.2935C104.558 27.2935 103.426 26.2958 103.426 20.9748C103.426 15.6539 107.916 11.3405 113.742 11.3405C119.568 11.3405 124.291 15.6539 124.291 20.9748Z" fill="#F04E23"/>
<path d="M111.697 14.0835L109.683 6.12408" stroke="black" stroke-linecap="round"/>
<path d="M109.683 8.09554C110.749 8.09554 111.614 7.21294 111.614 6.12421C111.614 5.03548 110.749 4.15289 109.683 4.15289C108.616 4.15289 107.752 5.03548 107.752 6.12421C107.752 7.21294 108.616 8.09554 109.683 8.09554Z" fill="#FFB400"/>
<path d="M109.421 16.3554L105.589 11.9249" stroke="black" stroke-linecap="round"/>
<path d="M106.314 13.7515C107.302 13.3419 107.778 12.1922 107.377 11.1834C106.976 10.1746 105.849 9.68888 104.861 10.0984C103.873 10.508 103.397 11.6577 103.798 12.6665C104.2 13.6752 105.326 14.161 106.314 13.7515Z" fill="#00ACDC"/>
<path d="M114.22 12.7415L115.283 2.297" stroke="black" stroke-linecap="round"/>
<path d="M114.672 3.97105C115.578 4.31508 116.585 3.84446 116.922 2.9199C117.259 1.99534 116.798 0.966941 115.892 0.622915C114.987 0.278888 113.979 0.749505 113.642 1.67407C113.305 2.59863 113.766 3.62702 114.672 3.97105Z" fill="#00ACDC"/>
<path d="M123.58 25.1749H103.903C103.361 25.1749 102.921 25.62 102.921 26.1692V30.0057C102.921 30.5548 103.361 31 103.903 31H123.58C124.122 31 124.562 30.5548 124.562 30.0057V26.1692C124.562 25.62 124.122 25.1749 123.58 25.1749Z" fill="#FFB400"/>
</svg>
