<svg width="350" height="76" viewBox="0 0 350 76" fill="none" xmlns="http://www.w3.org/2000/svg">
<path d="M14.7766 63.091H43.2131V74.5171H0V17.816H14.7766V63.091Z" fill="#222222"></path>
<path d="M65.9539 75.3762C58.7947 75.3762 53.1246 73.4289 48.9436 69.5343C44.8199 65.6396 42.758 60.1414 42.758 53.0394C42.758 48.343 43.703 44.3338 45.5931 41.0119C47.5404 37.6328 50.175 35.0841 53.4968 33.3659C56.876 31.5904 60.7992 30.7026 65.2666 30.7026C69.7912 30.7026 73.6286 31.5904 76.7786 33.3659C79.986 35.0841 82.4201 37.4896 84.081 40.5824C85.742 43.6179 86.5724 47.1116 86.5724 51.0635C86.5724 52.1517 86.5152 53.2112 86.4006 54.2422C86.3433 55.2158 86.2861 56.0463 86.2288 56.7336H56.9333C57.3342 59.7118 58.3078 61.8596 59.8542 63.1769C61.4006 64.4369 63.4338 65.0669 65.9539 65.0669C68.1303 65.0669 69.8485 64.6374 71.1085 63.7783C72.4258 62.9191 73.3995 61.7164 74.0295 60.17L85.7133 64.036C84.9115 66.4988 83.5083 68.5892 81.5037 70.3075C79.5564 71.9684 77.2082 73.2284 74.459 74.0875C71.7672 74.9466 68.9321 75.3762 65.9539 75.3762ZM65.2666 40.926C60.6274 40.926 57.8783 43.5892 57.0192 48.9157H72.7408C72.1108 43.5892 69.6194 40.926 65.2666 40.926Z" fill="#222222"></path>
<path d="M116.482 17.816C123.355 17.816 128.71 19.477 132.547 22.7989C136.442 26.0635 138.389 30.7026 138.389 36.7164C138.389 42.7301 136.442 47.3979 132.547 50.7198C128.71 53.9844 123.355 55.6167 116.482 55.6167H105.228V74.5171H90.4512V17.816H116.482ZM114.163 44.5343C120.405 44.5343 123.527 41.9283 123.527 36.7164C123.527 31.5045 120.405 28.8985 114.163 28.8985H105.228V44.5343H114.163Z" fill="#222222"></path>
<path d="M165.62 47.2834C165.62 45.2788 165.048 43.7038 163.902 42.5583C162.814 41.3556 161.325 40.7542 159.435 40.7542C157.545 40.7542 155.912 41.241 154.538 42.2147C153.221 43.1311 152.304 44.792 151.789 47.1975L139.418 44.2765C140.219 40.1528 142.339 36.8596 145.775 34.3968C149.211 31.934 154.051 30.7026 160.294 30.7026C166.594 30.7026 171.462 32.1058 174.899 34.9123C178.392 37.6614 180.139 41.6992 180.139 47.0257V62.7473C180.139 64.981 181.142 66.0978 183.146 66.0978C184.177 66.0978 185.007 65.9833 185.637 65.7542L184.778 74.0875C183.06 74.8894 180.97 75.2903 178.507 75.2903C175.815 75.2903 173.495 74.7748 171.548 73.7439C169.601 72.6557 168.284 71.0234 167.596 68.847C166.394 71.0807 164.475 72.7416 161.84 73.8298C159.263 74.8607 156.514 75.3762 153.593 75.3762C149.183 75.3762 145.66 74.3739 143.026 72.3693C140.448 70.3075 139.16 67.3579 139.16 63.5205C139.16 60.4277 140.076 57.879 141.909 55.8745C143.799 53.8126 146.749 52.3808 150.758 51.5789L165.62 48.4861V47.2834ZM153.593 62.1459C153.593 63.406 154.051 64.351 154.967 64.981C155.884 65.611 156.972 65.926 158.232 65.926C160.179 65.926 161.898 65.3533 163.387 64.2078C164.876 63.0051 165.62 61.1437 165.62 58.6236V56.2181L158.662 57.6786C156.943 58.0222 155.655 58.5377 154.796 59.225C153.994 59.855 153.593 60.8286 153.593 62.1459Z" fill="#222222"></path>
<path d="M215.326 31.5617V41.9569H202.525V59.225C202.525 61.2868 203.012 62.776 203.985 63.6923C205.016 64.5514 206.42 64.981 208.195 64.981C209.57 64.981 210.744 64.8378 211.717 64.5514C212.691 64.2078 213.607 63.721 214.467 63.091L216.013 72.1116C214.581 73.0852 212.748 73.8871 210.515 74.5171C208.338 75.0898 206.133 75.3762 203.9 75.3762C198.974 75.3762 195.079 74.3453 192.216 72.2834C189.409 70.1643 187.977 66.6133 187.92 61.6305V41.9569H180.532V31.5617H187.92V21.9398L202.525 17.902V31.5617H215.326Z" fill="#222222"></path>
<path d="M216.917 74.5171V31.5617H229.804L230.405 40.8401C231.436 37.69 233.011 35.2273 235.13 33.4518C237.306 31.619 240.084 30.7026 243.463 30.7026C244.552 30.7026 245.468 30.8172 246.213 31.0463C247.014 31.2181 247.644 31.4186 248.103 31.6477L246.642 43.6751C246.069 43.5033 245.325 43.3315 244.408 43.1597C243.549 42.9879 242.49 42.902 241.23 42.902C238.595 42.902 236.304 43.7324 234.357 45.3934C232.467 47.0543 231.522 49.5457 231.522 52.8676V74.5171H216.917Z" fill="#222222"></path>
<path d="M306.959 74.5171V31.5617H320.017L320.447 40.2387C321.764 37.0887 323.683 34.7118 326.203 33.1081C328.723 31.5045 331.701 30.7026 335.137 30.7026C339.548 30.7026 343.127 31.9913 345.876 34.5686C348.625 37.1459 350 40.926 350 45.9088V74.5171H335.395V49.7748C335.395 46.7966 334.822 44.7347 333.677 43.5892C332.531 42.4438 331.071 41.871 329.296 41.871C327.176 41.871 325.344 42.6156 323.797 44.1047C322.308 45.5938 321.564 48.1425 321.564 51.7508V74.5171H306.959Z" fill="#222222"></path>
<path d="M282.816 40.0549L291.071 16.2668" stroke="#1a1a1a" stroke-linecap="round"></path>
<ellipse cx="4.26323" cy="4.27632" rx="4.26323" ry="4.27632" transform="matrix(0.829295 0.558811 -0.552652 0.833412 289.897 10.32)" fill="#F04E23"></ellipse>
<path d="M283.198 46.2129L299.368 26.9922" stroke="#1a1a1a" stroke-linecap="round"></path>
<ellipse cx="4.27551" cy="4.26405" rx="4.27551" ry="4.26405" transform="matrix(0.573641 0.819107 -0.81475 0.579812 300.388 21.0175)" fill="#00ACDC"></ellipse>
<path d="M302.096 51.316C302.096 64.0862 301.527 66.4807 276.455 66.4807C254.134 66.4807 251.381 64.0862 251.381 51.316C251.381 38.5459 262.294 28.1936 276.455 28.1936C290.616 28.1936 302.096 38.5459 302.096 51.316Z" fill="#F04E23"></path>
<path d="M271.486 34.7767L266.59 15.6743" stroke="#1a1a1a" stroke-linecap="round"></path>
<ellipse cx="266.59" cy="15.6746" rx="4.69336" ry="4.73114" fill="#FFB400"></ellipse>
<path d="M265.955 40.2293L256.639 29.5959" stroke="#1a1a1a" stroke-linecap="round"></path>
<ellipse cx="4.69873" cy="4.72582" rx="4.69873" ry="4.72582" transform="matrix(0.925494 -0.378763 0.373585 0.927596 250.523 26.9922)" fill="#00ACDC"></ellipse>
<path d="M277.618 31.5561L280.201 6.48932" stroke="#1a1a1a" stroke-linecap="round"></path>
<ellipse cx="4.25681" cy="4.28272" rx="4.25681" ry="4.28272" transform="matrix(0.936301 0.351197 -0.346287 0.938129 277.697 0.976562)" fill="#00ACDC"></ellipse>
<rect x="250.156" y="61.3959" width="52.5995" height="13.9803" rx="1" fill="#FFB400"></rect>
</svg>