<?xml version="1.0" encoding="UTF-8" standalone="no"?><!DOCTYPE svg PUBLIC "-//W3C//DTD SVG 1.1//EN" "http://www.w3.org/Graphics/SVG/1.1/DTD/svg11.dtd"><svg width="100%" height="100%" viewBox="0 0 950 495" version="1.1" xmlns="http://www.w3.org/2000/svg" xmlns:xlink="http://www.w3.org/1999/xlink" xml:space="preserve" xmlns:serif="http://www.serif.com/" style="fill-rule:evenodd;clip-rule:evenodd;stroke-miterlimit:1.5;"><rect x="38" y="19" width="874" height="304" style="fill:none;stroke:#000;stroke-width:4px;"/><rect x="57" y="76" width="399" height="95" style="fill:none;stroke:#000;stroke-width:2px;"/><rect x="494" y="76" width="399" height="95" style="fill:none;stroke:#000;stroke-width:2px;"/><rect x="57" y="248.757" width="836" height="57" style="fill:none;stroke:#000;stroke-width:2px;"/><rect x="38" y="399" width="418" height="76" style="fill:none;stroke:#000;stroke-width:4px;"/><rect x="494" y="399" width="418" height="76" style="fill:none;stroke:#000;stroke-width:4px;"/><text x="166.729px" y="446.097px" style="font-family:'ArialMT', 'Arial', sans-serif;font-size:36px;">mongoDB</text><text x="391.249px" y="57px" style="font-family:'ArialMT', 'Arial', sans-serif;font-size:36px;">expressJS</text><text x="74.172px" y="103.59px" style="font-family:'ArialMT', 'Arial', sans-serif;font-size:24px;">NuxtJS</text><text x="512.898px" y="103.59px" style="font-family:'ArialMT', 'Arial', sans-serif;font-size:24px;">Mosaico</text><g transform="matrix(1,0,0,1,449.711,-406.462)"><text x="80.508px" y="533.566px" style="font-family:'ArialMT', 'Arial', sans-serif;font-size:18px;">Standalone front application</text><text x="80.508px" y="552.155px" style="font-family:'ArialMT', 'Arial', sans-serif;font-size:18px;">Build with Gulp + Browserify</text></g><text x="740.191px" y="357.212px" style="font-family:'ArialMT', 'Arial', sans-serif;font-size:18px;">Persist/retrieve images</text><g transform="matrix(1,0,0,1,640.103,-330.462)"><text x="80.508px" y="533.566px" style="font-family:'ArialMT', 'Arial', sans-serif;font-size:18px;">get template &amp; mailing</text><text x="80.508px" y="552.155px" style="font-family:'ArialMT', 'Arial', sans-serif;font-size:18px;">data at Mosaico format</text></g><g transform="matrix(1,0,0,1,383.075,-338.497)"><text x="88.497px" y="533.566px" style="font-family:'ArialMT', 'Arial', sans-serif;font-size:18px;">call speciﬁc endpoints</text><text x="99.519px" y="552.155px" style="font-family:'ArialMT', 'Arial', sans-serif;font-size:18px;">passed in Mosaico´s</text><text x="62.473px" y="570.744px" style="font-family:'ArialMT', 'Arial', sans-serif;font-size:18px;">initialisation conﬁguration</text></g><text x="68.628px" y="357.212px" style="font-family:'ArialMT', 'Arial', sans-serif;font-size:18px;">Persist/retrieve data</text><g transform="matrix(1,0,0,1,12.734,-406.462)"><text x="80.508px" y="533.566px" style="font-family:'ArialMT', 'Arial', sans-serif;font-size:18px;">Universal application (front/back)</text><text x="80.508px" y="552.155px" style="font-family:'ArialMT', 'Arial', sans-serif;font-size:18px;">Build with Nuxt (webpack)</text></g><text x="436.213px" y="285.847px" style="font-family:'ArialMT', 'Arial', sans-serif;font-size:24px;">API</text><text x="610.794px" y="449.876px" style="font-family:'ArialMT', 'Arial', sans-serif;font-size:36px;">Amazon S3</text><path d="M256.5,191.757l-19,0l28.5,-38l28.5,38l-19,0l0,38l19,0l-28.5,38l-28.5,-38l19,0l0,-38Z"/><path d="M674.5,191.757l-19,0l28.5,-38l28.5,38l-19,0l0,38l19,0l-28.5,38l-28.5,-38l19,0l0,-38Z"/><path d="M693.5,333.659l-19,0l28.5,-38l28.5,38l-19,0l0,38l19,0l-28.5,38l-28.5,-38l19,0l0,-38Z"/><path d="M237.5,333.659l-19,0l28.5,-38l28.5,38l-19,0l0,38l19,0l-28.5,38l-28.5,-38l19,0l0,-38Z"/></svg>
